<?xml version="1.0" encoding="UTF-8"?>
<!DOCTYPE svg PUBLIC "-//W3C//DTD SVG 1.1//EN" "http://www.w3.org/Graphics/SVG/1.1/DTD/svg11.dtd">
<svg xmlns="http://www.w3.org/2000/svg" version="1.1" width="512px" height="512px" style="shape-rendering:geometricPrecision; text-rendering:geometricPrecision; image-rendering:optimizeQuality; fill-rule:evenodd; clip-rule:evenodd" xmlns:xlink="http://www.w3.org/1999/xlink">
<g><path style="opacity:0.971" fill="#000000" d="M 191.5,-0.5 C 233.833,-0.5 276.167,-0.5 318.5,-0.5C 347.845,9.46336 360.512,30.13 356.5,61.5C 379.169,61.3334 401.836,61.5 424.5,62C 449.168,67.1675 462.168,82.3342 463.5,107.5C 462.536,130.094 451.37,145.094 430,152.5C 429.667,254.167 429.333,355.833 429,457.5C 424.071,486.257 407.571,504.257 379.5,511.5C 296.833,511.5 214.167,511.5 131.5,511.5C 104.34,504.503 87.8398,487.169 82,459.5C 81.8333,357.165 81.3333,254.832 80.5,152.5C 54.0505,141.94 43.5505,122.607 49,94.5C 54.8664,76.6357 67.0331,65.8023 85.5,62C 108.498,61.5 131.498,61.3334 154.5,61.5C 150.854,39.9274 157.187,22.0941 173.5,8C 179.198,4.31554 185.198,1.48221 191.5,-0.5 Z M 202.5,23.5 C 240.197,23.0442 277.864,23.5442 315.5,25C 322.583,27.1182 327.416,31.6182 330,38.5C 331.396,46.0804 331.896,53.747 331.5,61.5C 280.833,61.5 230.167,61.5 179.5,61.5C 179.334,54.825 179.5,48.1583 180,41.5C 183.457,30.3644 190.957,24.3644 202.5,23.5 Z M 88.5,86.5 C 199.834,86.3333 311.167,86.5 422.5,87C 438.495,93.9852 442.328,105.152 434,120.5C 430.579,124.257 426.412,126.757 421.5,128C 310.833,128.667 200.167,128.667 89.5,128C 73.3121,122.116 68.8121,111.282 76,95.5C 79.2991,91.1179 83.4657,88.1179 88.5,86.5 Z M 105.5,153.5 C 205.167,153.5 304.833,153.5 404.5,153.5C 404.667,254.167 404.5,354.834 404,455.5C 400.756,471.074 391.59,481.241 376.5,486C 336.025,487.143 295.525,487.643 255,487.5C 214.806,487.646 174.639,487.146 134.5,486C 116.143,479.808 106.643,466.975 106,447.5C 105.5,349.501 105.333,251.501 105.5,153.5 Z"/></g>
<g><path style="opacity:0.955" fill="#000000" d="M 181.5,184.5 C 190.597,183.614 195.764,187.614 197,196.5C 197.667,272.5 197.667,348.5 197,424.5C 194.03,435.069 187.53,438.235 177.5,434C 175.622,432.457 174.122,430.624 173,428.5C 172.333,349.833 172.333,271.167 173,192.5C 174.773,188.56 177.606,185.893 181.5,184.5 Z"/></g>
<g><path style="opacity:0.956" fill="#000000" d="M 252.5,184.5 C 259.314,183.706 264.147,186.373 267,192.5C 267.667,271.167 267.667,349.833 267,428.5C 260.378,437.829 253.045,438.496 245,430.5C 244.027,428.608 243.36,426.608 243,424.5C 242.333,348.5 242.333,272.5 243,196.5C 243.569,190.327 246.736,186.327 252.5,184.5 Z"/></g>
<g><path style="opacity:0.956" fill="#000000" d="M 323.5,184.5 C 330.796,183.643 335.629,186.643 338,193.5C 338.667,271.167 338.667,348.833 338,426.5C 336.17,432.418 332.17,435.751 326,436.5C 319.258,435.8 315.258,432.133 314,425.5C 313.333,348.5 313.333,271.5 314,194.5C 315.35,189.319 318.517,185.986 323.5,184.5 Z"/></g>
</svg>
