<?xml version="1.0" encoding="UTF-8"?>
<!DOCTYPE svg PUBLIC "-//W3C//DTD SVG 1.1//EN" "http://www.w3.org/Graphics/SVG/1.1/DTD/svg11.dtd">
<svg xmlns="http://www.w3.org/2000/svg" version="1.1" width="512px" height="512px" style="shape-rendering:geometricPrecision; text-rendering:geometricPrecision; image-rendering:optimizeQuality; fill-rule:evenodd; clip-rule:evenodd" xmlns:xlink="http://www.w3.org/1999/xlink">
<g><path style="opacity:0.982" fill="#000000" d="M 44.5,-0.5 C 164.833,-0.5 285.167,-0.5 405.5,-0.5C 440.41,32.9089 474.91,66.9089 509,101.5C 509.608,103.066 510.442,104.4 511.5,105.5C 511.5,225.833 511.5,346.167 511.5,466.5C 505.5,490.5 490.5,505.5 466.5,511.5C 325.833,511.5 185.167,511.5 44.5,511.5C 20.9464,505.613 5.94638,490.947 -0.5,467.5C -0.5,326.167 -0.5,184.833 -0.5,43.5C 5.94638,20.0533 20.9464,5.38664 44.5,-0.5 Z M 54.5,29.5 C 68.1667,29.5 81.8333,29.5 95.5,29.5C 95.3333,72.8346 95.5,116.168 96,159.5C 101.5,185 117,200.5 142.5,206C 207.167,206.667 271.833,206.667 336.5,206C 362.44,200.394 377.94,184.56 383,158.5C 383.5,115.501 383.667,72.5013 383.5,29.5C 386.85,29.335 390.183,29.5017 393.5,30C 422.667,59.1667 451.833,88.3333 481,117.5C 481.988,232.529 481.655,347.529 480,462.5C 477.5,471.667 471.667,477.5 462.5,480C 446.877,481.401 431.21,481.901 415.5,481.5C 415.667,427.499 415.5,373.499 415,319.5C 409.791,294.245 394.625,278.745 369.5,273C 293.5,272.333 217.5,272.333 141.5,273C 116.375,278.745 101.209,294.245 96,319.5C 95.5,373.499 95.3333,427.499 95.5,481.5C 81.8293,481.667 68.1626,481.5 54.5,481C 39.6667,479.5 31.5,471.333 30,456.5C 29.3333,322.5 29.3333,188.5 30,54.5C 31.6779,39.6564 39.8446,31.3231 54.5,29.5 Z M 126.5,29.5 C 201.833,29.5 277.167,29.5 352.5,29.5C 352.667,71.5013 352.5,113.501 352,155.5C 349.609,165.558 343.443,172.058 333.5,175C 270.833,175.667 208.167,175.667 145.5,175C 136,172.167 129.833,166 127,156.5C 126.5,114.168 126.333,71.8346 126.5,29.5 Z M 144.5,303.5 C 218.501,303.333 292.501,303.5 366.5,304C 375.401,307.235 381.234,313.402 384,322.5C 384.5,375.499 384.667,428.499 384.5,481.5C 298.5,481.5 212.5,481.5 126.5,481.5C 126.333,428.499 126.5,375.499 127,322.5C 129.955,313.383 135.789,307.05 144.5,303.5 Z"/></g>
<g><path style="opacity:0.953" fill="#000000" d="M 298.5,63.5 C 309.25,61.9453 316.083,66.2786 319,76.5C 319.667,94.1667 319.667,111.833 319,129.5C 317.04,137.625 311.873,141.958 303.5,142.5C 296.16,142.085 291.326,138.418 289,131.5C 288.333,112.167 288.333,92.8333 289,73.5C 291.022,68.98 294.189,65.6467 298.5,63.5 Z"/></g>
</svg>
