<?xml version="1.0" encoding="UTF-8"?>
<!DOCTYPE svg PUBLIC "-//W3C//DTD SVG 1.1//EN" "http://www.w3.org/Graphics/SVG/1.1/DTD/svg11.dtd">
<svg xmlns="http://www.w3.org/2000/svg" version="1.1" width="1024px" height="1024px" style="shape-rendering:geometricPrecision; text-rendering:geometricPrecision; image-rendering:optimizeQuality; fill-rule:evenodd; clip-rule:evenodd" xmlns:xlink="http://www.w3.org/1999/xlink">
<g><path style="opacity:0.982" fill="#000000" d="M 828.5,51.5 C 838.517,50.1314 847.85,51.9647 856.5,57C 893.333,93.8333 930.167,130.667 967,167.5C 974.333,180.5 974.333,193.5 967,206.5C 813.833,359.667 660.667,512.833 507.5,666C 443.816,694.115 379.816,721.449 315.5,748C 291.311,750.072 277.644,739.072 274.5,715C 275.185,712.205 275.685,709.372 276,706.5C 301.667,646.167 327.333,585.833 353,525.5C 354.829,521.172 357.162,517.172 360,513.5C 511.833,361.667 663.667,209.833 815.5,58C 819.647,55.2599 823.98,53.0933 828.5,51.5 Z M 835.5,132.5 C 854.582,150.08 873.248,168.246 891.5,187C 872.333,206.167 853.167,225.333 834,244.5C 815.653,226.319 797.486,207.986 779.5,189.5C 798.188,170.479 816.855,151.479 835.5,132.5 Z M 746.5,221.5 C 764.799,239.298 782.965,257.298 801,275.5C 801.667,276.167 801.667,276.833 801,277.5C 694,384.5 587,491.5 480,598.5C 462,580.5 444,562.5 426,544.5C 425.333,543.833 425.333,543.167 426,542.5C 533.035,435.632 639.868,328.632 746.5,221.5 Z M 400.5,584.5 C 413.914,596.411 426.914,608.911 439.5,622C 417.517,632.218 395.35,642.051 373,651.5C 382.113,629.256 391.28,606.923 400.5,584.5 Z"/></g>
<g><path style="opacity:0.99" fill="#000000" d="M 76.5,191.5 C 200.167,191.333 323.834,191.5 447.5,192C 469.299,199.084 477.466,213.918 472,236.5C 466.91,248.928 457.743,256.095 444.5,258C 335.501,258.5 226.501,258.667 117.5,258.5C 117.5,474.167 117.5,689.833 117.5,905.5C 333.167,905.5 548.833,905.5 764.5,905.5C 764.333,794.833 764.5,684.166 765,573.5C 771.21,554.314 784.377,546.148 804.5,549C 817.89,552.056 826.39,560.223 830,573.5C 830.667,697.833 830.667,822.167 830,946.5C 826.491,959.342 818.325,967.509 805.5,971C 562.167,971.667 318.833,971.667 75.5,971C 62.6754,967.509 54.5088,959.342 51,946.5C 50.3333,703.5 50.3333,460.5 51,217.5C 54.3214,203.679 62.8214,195.013 76.5,191.5 Z M 400.5,584.5 C 391.28,606.923 382.113,629.256 373,651.5C 395.35,642.051 417.517,632.218 439.5,622C 426.914,608.911 413.914,596.411 400.5,584.5 Z"/></g>
</svg>
