<?xml version="1.0" encoding="UTF-8"?>
<!DOCTYPE svg PUBLIC "-//W3C//DTD SVG 1.1//EN" "http://www.w3.org/Graphics/SVG/1.1/DTD/svg11.dtd">
<svg xmlns="http://www.w3.org/2000/svg" version="1.1" width="348px" height="350px" style="shape-rendering:geometricPrecision; text-rendering:geometricPrecision; image-rendering:optimizeQuality; fill-rule:evenodd; clip-rule:evenodd" xmlns:xlink="http://www.w3.org/1999/xlink">
<g><path style="opacity:1" fill="#fefffe" d="M -0.5,-0.5 C 4.5,-0.5 9.5,-0.5 14.5,-0.5C 14.5,4.5 14.5,9.5 14.5,14.5C 9.5,14.5 4.5,14.5 -0.5,14.5C -0.5,9.5 -0.5,4.5 -0.5,-0.5 Z"/></g>
<g><path style="opacity:1" fill="#fefffe" d="M 59.5,-0.5 C 64.5,-0.5 69.5,-0.5 74.5,-0.5C 74.5,4.5 74.5,9.5 74.5,14.5C 69.5,14.5 64.5,14.5 59.5,14.5C 59.5,9.5 59.5,4.5 59.5,-0.5 Z"/></g>
<g><path style="opacity:1" fill="#edeeed" d="M 74.5,-0.5 C 79.5,-0.5 84.5,-0.5 89.5,-0.5C 89.5,4.5 89.5,9.5 89.5,14.5C 84.5,14.5 79.5,14.5 74.5,14.5C 74.5,9.5 74.5,4.5 74.5,-0.5 Z"/></g>
<g><path style="opacity:1" fill="#fefffe" d="M 89.5,-0.5 C 94.5,-0.5 99.5,-0.5 104.5,-0.5C 104.5,4.5 104.5,9.5 104.5,14.5C 99.5,14.5 94.5,14.5 89.5,14.5C 89.5,9.5 89.5,4.5 89.5,-0.5 Z"/></g>
<g><path style="opacity:1" fill="#edeeed" d="M 104.5,-0.5 C 109.5,-0.5 114.5,-0.5 119.5,-0.5C 119.5,4.5 119.5,9.5 119.5,14.5C 114.5,14.5 109.5,14.5 104.5,14.5C 104.5,9.5 104.5,4.5 104.5,-0.5 Z"/></g>
<g><path style="opacity:1" fill="#fefffe" d="M 119.5,-0.5 C 124.5,-0.5 129.5,-0.5 134.5,-0.5C 134.5,4.5 134.5,9.5 134.5,14.5C 129.5,14.5 124.5,14.5 119.5,14.5C 119.5,9.5 119.5,4.5 119.5,-0.5 Z"/></g>
<g><path style="opacity:1" fill="#edeeed" d="M 134.5,-0.5 C 139.5,-0.5 144.5,-0.5 149.5,-0.5C 149.5,4.5 149.5,9.5 149.5,14.5C 144.5,14.5 139.5,14.5 134.5,14.5C 134.5,9.5 134.5,4.5 134.5,-0.5 Z"/></g>
<g><path style="opacity:1" fill="#fefffe" d="M 149.5,-0.5 C 154.5,-0.5 159.5,-0.5 164.5,-0.5C 164.5,4.5 164.5,9.5 164.5,14.5C 159.5,14.5 154.5,14.5 149.5,14.5C 149.5,9.5 149.5,4.5 149.5,-0.5 Z"/></g>
<g><path style="opacity:1" fill="#edeeed" d="M 164.5,-0.5 C 169.5,-0.5 174.5,-0.5 179.5,-0.5C 179.5,4.5 179.5,9.5 179.5,14.5C 174.5,14.5 169.5,14.5 164.5,14.5C 164.5,9.5 164.5,4.5 164.5,-0.5 Z"/></g>
<g><path style="opacity:1" fill="#fefffe" d="M 179.5,-0.5 C 184.5,-0.5 189.5,-0.5 194.5,-0.5C 194.5,4.5 194.5,9.5 194.5,14.5C 189.5,14.5 184.5,14.5 179.5,14.5C 179.5,9.5 179.5,4.5 179.5,-0.5 Z"/></g>
<g><path style="opacity:1" fill="#edeeed" d="M 194.5,-0.5 C 199.5,-0.5 204.5,-0.5 209.5,-0.5C 209.5,4.5 209.5,9.5 209.5,14.5C 204.5,14.5 199.5,14.5 194.5,14.5C 194.5,9.5 194.5,4.5 194.5,-0.5 Z"/></g>
<g><path style="opacity:1" fill="#fefffe" d="M 209.5,-0.5 C 214.5,-0.5 219.5,-0.5 224.5,-0.5C 224.5,4.5 224.5,9.5 224.5,14.5C 219.5,14.5 214.5,14.5 209.5,14.5C 209.5,9.5 209.5,4.5 209.5,-0.5 Z"/></g>
<g><path style="opacity:1" fill="#edeeed" d="M 224.5,-0.5 C 229.5,-0.5 234.5,-0.5 239.5,-0.5C 239.5,4.5 239.5,9.5 239.5,14.5C 234.5,14.5 229.5,14.5 224.5,14.5C 224.5,9.5 224.5,4.5 224.5,-0.5 Z"/></g>
<g><path style="opacity:1" fill="#fefffe" d="M 239.5,-0.5 C 244.5,-0.5 249.5,-0.5 254.5,-0.5C 254.5,4.5 254.5,9.5 254.5,14.5C 249.5,14.5 244.5,14.5 239.5,14.5C 239.5,9.5 239.5,4.5 239.5,-0.5 Z"/></g>
<g><path style="opacity:1" fill="#010101" d="M 295.5,-0.5 C 296.167,-0.5 296.833,-0.5 297.5,-0.5C 312.145,14.4792 326.812,29.4792 341.5,44.5C 327.447,58.551 313.78,72.8843 300.5,87.5C 289.527,98.8067 278.527,110.14 267.5,121.5C 250.851,138.149 234.518,155.149 218.5,172.5C 261.137,214.469 304.137,256.136 347.5,297.5C 347.5,298.167 347.5,298.833 347.5,299.5C 332.855,314.479 318.188,329.479 303.5,344.5C 290.116,331.113 276.449,318.113 262.5,305.5C 233.183,276.851 203.517,248.518 173.5,220.5C 143.808,250.858 114.475,281.524 85.5,312.5C 72.82,324.214 60.82,336.547 49.5,349.5C 48.8333,349.5 48.1667,349.5 47.5,349.5C 34.3102,334.805 20.4769,320.472 6,306.5C 5.33333,305.5 5.33333,304.5 6,303.5C 46.0376,261.631 85.8709,219.631 125.5,177.5C 127.233,176.992 127.566,176.159 126.5,175C 84.2979,133.963 41.9646,93.13 -0.5,52.5C -0.5,51.8333 -0.5,51.1667 -0.5,50.5C 14.1489,35.85 28.4822,20.85 42.5,5.5C 46.1867,8.85537 49.8534,12.1887 53.5,15.5C 92.6339,53.7995 131.967,91.9662 171.5,130C 172.332,130.688 172.998,130.521 173.5,129.5C 183.609,118.277 193.942,107.277 204.5,96.5C 235.172,64.4945 265.505,32.1612 295.5,-0.5 Z"/></g>
<g><path style="opacity:1" fill="#f5f5f5" d="M 14.5,-0.5 C 24.5,-0.5 34.5,-0.5 44.5,-0.5C 44.3379,1.5273 44.5045,3.5273 45,5.5C 48.442,8.43196 51.2754,11.7653 53.5,15.5C 49.8534,12.1887 46.1867,8.85537 42.5,5.5C 28.4822,20.85 14.1489,35.85 -0.5,50.5C -0.5,38.5 -0.5,26.5 -0.5,14.5C 4.5,14.5 9.5,14.5 14.5,14.5C 14.5,9.5 14.5,4.5 14.5,-0.5 Z"/></g>
<g><path style="opacity:1" fill="#fefffe" d="M 74.5,14.5 C 79.5,14.5 84.5,14.5 89.5,14.5C 89.5,19.5 89.5,24.5 89.5,29.5C 84.5,29.5 79.5,29.5 74.5,29.5C 74.5,24.5 74.5,19.5 74.5,14.5 Z"/></g>
<g><path style="opacity:1" fill="#edeeed" d="M 89.5,14.5 C 94.5,14.5 99.5,14.5 104.5,14.5C 104.5,19.5 104.5,24.5 104.5,29.5C 99.5,29.5 94.5,29.5 89.5,29.5C 89.5,24.5 89.5,19.5 89.5,14.5 Z"/></g>
<g><path style="opacity:1" fill="#fefffe" d="M 104.5,14.5 C 109.5,14.5 114.5,14.5 119.5,14.5C 119.5,19.5 119.5,24.5 119.5,29.5C 114.5,29.5 109.5,29.5 104.5,29.5C 104.5,24.5 104.5,19.5 104.5,14.5 Z"/></g>
<g><path style="opacity:1" fill="#edeeed" d="M 119.5,14.5 C 124.5,14.5 129.5,14.5 134.5,14.5C 134.5,19.5 134.5,24.5 134.5,29.5C 129.5,29.5 124.5,29.5 119.5,29.5C 119.5,24.5 119.5,19.5 119.5,14.5 Z"/></g>
<g><path style="opacity:1" fill="#fefffe" d="M 134.5,14.5 C 139.5,14.5 144.5,14.5 149.5,14.5C 149.5,19.5 149.5,24.5 149.5,29.5C 144.5,29.5 139.5,29.5 134.5,29.5C 134.5,24.5 134.5,19.5 134.5,14.5 Z"/></g>
<g><path style="opacity:1" fill="#edeeed" d="M 149.5,14.5 C 154.5,14.5 159.5,14.5 164.5,14.5C 164.5,19.5 164.5,24.5 164.5,29.5C 159.5,29.5 154.5,29.5 149.5,29.5C 149.5,24.5 149.5,19.5 149.5,14.5 Z"/></g>
<g><path style="opacity:1" fill="#fefffe" d="M 164.5,14.5 C 169.5,14.5 174.5,14.5 179.5,14.5C 179.5,19.5 179.5,24.5 179.5,29.5C 174.5,29.5 169.5,29.5 164.5,29.5C 164.5,24.5 164.5,19.5 164.5,14.5 Z"/></g>
<g><path style="opacity:1" fill="#edeeed" d="M 179.5,14.5 C 184.5,14.5 189.5,14.5 194.5,14.5C 194.5,19.5 194.5,24.5 194.5,29.5C 189.5,29.5 184.5,29.5 179.5,29.5C 179.5,24.5 179.5,19.5 179.5,14.5 Z"/></g>
<g><path style="opacity:1" fill="#fefffe" d="M 194.5,14.5 C 199.5,14.5 204.5,14.5 209.5,14.5C 209.5,19.5 209.5,24.5 209.5,29.5C 204.5,29.5 199.5,29.5 194.5,29.5C 194.5,24.5 194.5,19.5 194.5,14.5 Z"/></g>
<g><path style="opacity:1" fill="#edeeed" d="M 209.5,14.5 C 214.5,14.5 219.5,14.5 224.5,14.5C 224.5,19.5 224.5,24.5 224.5,29.5C 219.5,29.5 214.5,29.5 209.5,29.5C 209.5,24.5 209.5,19.5 209.5,14.5 Z"/></g>
<g><path style="opacity:1" fill="#fefffe" d="M 224.5,14.5 C 229.5,14.5 234.5,14.5 239.5,14.5C 239.5,19.5 239.5,24.5 239.5,29.5C 234.5,29.5 229.5,29.5 224.5,29.5C 224.5,24.5 224.5,19.5 224.5,14.5 Z"/></g>
<g><path style="opacity:1" fill="#fefffe" d="M 89.5,29.5 C 94.5,29.5 99.5,29.5 104.5,29.5C 104.5,34.5 104.5,39.5 104.5,44.5C 99.5,44.5 94.5,44.5 89.5,44.5C 89.5,39.5 89.5,34.5 89.5,29.5 Z"/></g>
<g><path style="opacity:1" fill="#edeeed" d="M 104.5,29.5 C 109.5,29.5 114.5,29.5 119.5,29.5C 119.5,34.5 119.5,39.5 119.5,44.5C 114.5,44.5 109.5,44.5 104.5,44.5C 104.5,39.5 104.5,34.5 104.5,29.5 Z"/></g>
<g><path style="opacity:1" fill="#fefffe" d="M 119.5,29.5 C 124.5,29.5 129.5,29.5 134.5,29.5C 134.5,34.5 134.5,39.5 134.5,44.5C 129.5,44.5 124.5,44.5 119.5,44.5C 119.5,39.5 119.5,34.5 119.5,29.5 Z"/></g>
<g><path style="opacity:1" fill="#edeeed" d="M 134.5,29.5 C 139.5,29.5 144.5,29.5 149.5,29.5C 149.5,34.5 149.5,39.5 149.5,44.5C 144.5,44.5 139.5,44.5 134.5,44.5C 134.5,39.5 134.5,34.5 134.5,29.5 Z"/></g>
<g><path style="opacity:1" fill="#fefffe" d="M 149.5,29.5 C 154.5,29.5 159.5,29.5 164.5,29.5C 164.5,34.5 164.5,39.5 164.5,44.5C 159.5,44.5 154.5,44.5 149.5,44.5C 149.5,39.5 149.5,34.5 149.5,29.5 Z"/></g>
<g><path style="opacity:1" fill="#edeeed" d="M 164.5,29.5 C 169.5,29.5 174.5,29.5 179.5,29.5C 179.5,34.5 179.5,39.5 179.5,44.5C 174.5,44.5 169.5,44.5 164.5,44.5C 164.5,39.5 164.5,34.5 164.5,29.5 Z"/></g>
<g><path style="opacity:1" fill="#fefffe" d="M 179.5,29.5 C 184.5,29.5 189.5,29.5 194.5,29.5C 194.5,34.5 194.5,39.5 194.5,44.5C 189.5,44.5 184.5,44.5 179.5,44.5C 179.5,39.5 179.5,34.5 179.5,29.5 Z"/></g>
<g><path style="opacity:1" fill="#edeeed" d="M 194.5,29.5 C 199.5,29.5 204.5,29.5 209.5,29.5C 209.5,34.5 209.5,39.5 209.5,44.5C 204.5,44.5 199.5,44.5 194.5,44.5C 194.5,39.5 194.5,34.5 194.5,29.5 Z"/></g>
<g><path style="opacity:1" fill="#fefffe" d="M 209.5,29.5 C 214.5,29.5 219.5,29.5 224.5,29.5C 224.5,34.5 224.5,39.5 224.5,44.5C 219.5,44.5 214.5,44.5 209.5,44.5C 209.5,39.5 209.5,34.5 209.5,29.5 Z"/></g>
<g><path style="opacity:1" fill="#f5f5f5" d="M 254.5,-0.5 C 268.167,-0.5 281.833,-0.5 295.5,-0.5C 265.505,32.1612 235.172,64.4945 204.5,96.5C 203.475,96.1034 203.308,95.4368 204,94.5C 205.5,93 207,91.5 208.5,90C 203.845,89.5008 199.179,89.3342 194.5,89.5C 194.5,94.5 194.5,99.5 194.5,104.5C 189.5,104.5 184.5,104.5 179.5,104.5C 179.5,99.5 179.5,94.5 179.5,89.5C 179.5,84.5 179.5,79.5 179.5,74.5C 184.5,74.5 189.5,74.5 194.5,74.5C 194.5,69.5 194.5,64.5 194.5,59.5C 199.5,59.5 204.5,59.5 209.5,59.5C 209.5,54.5 209.5,49.5 209.5,44.5C 214.5,44.5 219.5,44.5 224.5,44.5C 224.5,39.5 224.5,34.5 224.5,29.5C 229.5,29.5 234.5,29.5 239.5,29.5C 239.5,24.5 239.5,19.5 239.5,14.5C 244.5,14.5 249.5,14.5 254.5,14.5C 254.5,9.5 254.5,4.5 254.5,-0.5 Z"/></g>
<g><path style="opacity:1" fill="#ededed" d="M 44.5,-0.5 C 49.5,-0.5 54.5,-0.5 59.5,-0.5C 59.5,4.5 59.5,9.5 59.5,14.5C 64.5,14.5 69.5,14.5 74.5,14.5C 74.5,19.5 74.5,24.5 74.5,29.5C 79.5,29.5 84.5,29.5 89.5,29.5C 89.5,34.5 89.5,39.5 89.5,44.5C 94.5,44.5 99.5,44.5 104.5,44.5C 104.5,49.5 104.5,54.5 104.5,59.5C 109.5,59.5 114.5,59.5 119.5,59.5C 119.5,64.5 119.5,69.5 119.5,74.5C 124.5,74.5 129.5,74.5 134.5,74.5C 134.5,79.5 134.5,84.5 134.5,89.5C 139.5,89.5 144.5,89.5 149.5,89.5C 149.5,94.5 149.5,99.5 149.5,104.5C 154.5,104.5 159.5,104.5 164.5,104.5C 164.5,109.5 164.5,114.5 164.5,119.5C 169.5,119.5 174.5,119.5 179.5,119.5C 179.5,114.5 179.5,109.5 179.5,104.5C 184.5,104.5 189.5,104.5 194.5,104.5C 194.5,99.5 194.5,94.5 194.5,89.5C 199.179,89.3342 203.845,89.5008 208.5,90C 207,91.5 205.5,93 204,94.5C 203.308,95.4368 203.475,96.1034 204.5,96.5C 193.942,107.277 183.609,118.277 173.5,129.5C 172.998,130.521 172.332,130.688 171.5,130C 131.967,91.9662 92.6339,53.7995 53.5,15.5C 51.2754,11.7653 48.442,8.43196 45,5.5C 44.5045,3.5273 44.3379,1.5273 44.5,-0.5 Z"/></g>
<g><path style="opacity:1" fill="#fefffe" d="M 104.5,44.5 C 109.5,44.5 114.5,44.5 119.5,44.5C 119.5,49.5 119.5,54.5 119.5,59.5C 114.5,59.5 109.5,59.5 104.5,59.5C 104.5,54.5 104.5,49.5 104.5,44.5 Z"/></g>
<g><path style="opacity:1" fill="#edeeed" d="M 119.5,44.5 C 124.5,44.5 129.5,44.5 134.5,44.5C 134.5,49.5 134.5,54.5 134.5,59.5C 129.5,59.5 124.5,59.5 119.5,59.5C 119.5,54.5 119.5,49.5 119.5,44.5 Z"/></g>
<g><path style="opacity:1" fill="#fefffe" d="M 134.5,44.5 C 139.5,44.5 144.5,44.5 149.5,44.5C 149.5,49.5 149.5,54.5 149.5,59.5C 144.5,59.5 139.5,59.5 134.5,59.5C 134.5,54.5 134.5,49.5 134.5,44.5 Z"/></g>
<g><path style="opacity:1" fill="#edeeed" d="M 149.5,44.5 C 154.5,44.5 159.5,44.5 164.5,44.5C 164.5,49.5 164.5,54.5 164.5,59.5C 159.5,59.5 154.5,59.5 149.5,59.5C 149.5,54.5 149.5,49.5 149.5,44.5 Z"/></g>
<g><path style="opacity:1" fill="#fefffe" d="M 164.5,44.5 C 169.5,44.5 174.5,44.5 179.5,44.5C 179.5,49.5 179.5,54.5 179.5,59.5C 174.5,59.5 169.5,59.5 164.5,59.5C 164.5,54.5 164.5,49.5 164.5,44.5 Z"/></g>
<g><path style="opacity:1" fill="#edeeed" d="M 179.5,44.5 C 184.5,44.5 189.5,44.5 194.5,44.5C 194.5,49.5 194.5,54.5 194.5,59.5C 189.5,59.5 184.5,59.5 179.5,59.5C 179.5,54.5 179.5,49.5 179.5,44.5 Z"/></g>
<g><path style="opacity:1" fill="#fefffe" d="M 194.5,44.5 C 199.5,44.5 204.5,44.5 209.5,44.5C 209.5,49.5 209.5,54.5 209.5,59.5C 204.5,59.5 199.5,59.5 194.5,59.5C 194.5,54.5 194.5,49.5 194.5,44.5 Z"/></g>
<g><path style="opacity:1" fill="#f7f7f7" d="M -0.5,52.5 C 41.9646,93.13 84.2979,133.963 126.5,175C 127.566,176.159 127.233,176.992 125.5,177.5C 123.901,175.396 122.068,173.396 120,171.5C 119.503,174.146 119.336,176.813 119.5,179.5C 114.5,179.5 109.5,179.5 104.5,179.5C 104.5,184.5 104.5,189.5 104.5,194.5C 99.5,194.5 94.5,194.5 89.5,194.5C 89.5,199.5 89.5,204.5 89.5,209.5C 84.5,209.5 79.5,209.5 74.5,209.5C 74.5,214.5 74.5,219.5 74.5,224.5C 69.5,224.5 64.5,224.5 59.5,224.5C 59.5,229.5 59.5,234.5 59.5,239.5C 54.5,239.5 49.5,239.5 44.5,239.5C 44.5,244.5 44.5,249.5 44.5,254.5C 39.5,254.5 34.5,254.5 29.5,254.5C 29.5,259.5 29.5,264.5 29.5,269.5C 24.5,269.5 19.5,269.5 14.5,269.5C 14.5,274.5 14.5,279.5 14.5,284.5C 9.5,284.5 4.5,284.5 -0.5,284.5C -0.5,207.167 -0.5,129.833 -0.5,52.5 Z"/></g>
<g><path style="opacity:1" fill="#fefffe" d="M 119.5,59.5 C 124.5,59.5 129.5,59.5 134.5,59.5C 134.5,64.5 134.5,69.5 134.5,74.5C 129.5,74.5 124.5,74.5 119.5,74.5C 119.5,69.5 119.5,64.5 119.5,59.5 Z"/></g>
<g><path style="opacity:1" fill="#edeeed" d="M 134.5,59.5 C 139.5,59.5 144.5,59.5 149.5,59.5C 149.5,64.5 149.5,69.5 149.5,74.5C 144.5,74.5 139.5,74.5 134.5,74.5C 134.5,69.5 134.5,64.5 134.5,59.5 Z"/></g>
<g><path style="opacity:1" fill="#fefffe" d="M 149.5,59.5 C 154.5,59.5 159.5,59.5 164.5,59.5C 164.5,64.5 164.5,69.5 164.5,74.5C 159.5,74.5 154.5,74.5 149.5,74.5C 149.5,69.5 149.5,64.5 149.5,59.5 Z"/></g>
<g><path style="opacity:1" fill="#edeeed" d="M 164.5,59.5 C 169.5,59.5 174.5,59.5 179.5,59.5C 179.5,64.5 179.5,69.5 179.5,74.5C 174.5,74.5 169.5,74.5 164.5,74.5C 164.5,69.5 164.5,64.5 164.5,59.5 Z"/></g>
<g><path style="opacity:1" fill="#fefffe" d="M 179.5,59.5 C 184.5,59.5 189.5,59.5 194.5,59.5C 194.5,64.5 194.5,69.5 194.5,74.5C 189.5,74.5 184.5,74.5 179.5,74.5C 179.5,69.5 179.5,64.5 179.5,59.5 Z"/></g>
<g><path style="opacity:1" fill="#fefffe" d="M 134.5,74.5 C 139.5,74.5 144.5,74.5 149.5,74.5C 149.5,79.5 149.5,84.5 149.5,89.5C 144.5,89.5 139.5,89.5 134.5,89.5C 134.5,84.5 134.5,79.5 134.5,74.5 Z"/></g>
<g><path style="opacity:1" fill="#edeeed" d="M 149.5,74.5 C 154.5,74.5 159.5,74.5 164.5,74.5C 164.5,79.5 164.5,84.5 164.5,89.5C 159.5,89.5 154.5,89.5 149.5,89.5C 149.5,84.5 149.5,79.5 149.5,74.5 Z"/></g>
<g><path style="opacity:1" fill="#fefffe" d="M 164.5,74.5 C 169.5,74.5 174.5,74.5 179.5,74.5C 179.5,79.5 179.5,84.5 179.5,89.5C 174.5,89.5 169.5,89.5 164.5,89.5C 164.5,84.5 164.5,79.5 164.5,74.5 Z"/></g>
<g><path style="opacity:1" fill="#fefffe" d="M 149.5,89.5 C 154.5,89.5 159.5,89.5 164.5,89.5C 164.5,94.5 164.5,99.5 164.5,104.5C 159.5,104.5 154.5,104.5 149.5,104.5C 149.5,99.5 149.5,94.5 149.5,89.5 Z"/></g>
<g><path style="opacity:1" fill="#edeeed" d="M 164.5,89.5 C 169.5,89.5 174.5,89.5 179.5,89.5C 179.5,94.5 179.5,99.5 179.5,104.5C 174.5,104.5 169.5,104.5 164.5,104.5C 164.5,99.5 164.5,94.5 164.5,89.5 Z"/></g>
<g><path style="opacity:1" fill="#f8f8f8" d="M 300.5,87.5 C 301.738,87.81 301.738,88.31 300.5,89C 305.155,89.4992 309.821,89.6658 314.5,89.5C 314.5,94.5 314.5,99.5 314.5,104.5C 319.5,104.5 324.5,104.5 329.5,104.5C 329.5,109.5 329.5,114.5 329.5,119.5C 334.5,119.5 339.5,119.5 344.5,119.5C 344.5,124.5 344.5,129.5 344.5,134.5C 339.5,134.5 334.5,134.5 329.5,134.5C 329.5,139.5 329.5,144.5 329.5,149.5C 334.5,149.5 339.5,149.5 344.5,149.5C 344.5,154.5 344.5,159.5 344.5,164.5C 339.5,164.5 334.5,164.5 329.5,164.5C 329.5,169.5 329.5,174.5 329.5,179.5C 324.5,179.5 319.5,179.5 314.5,179.5C 314.5,174.5 314.5,169.5 314.5,164.5C 309.5,164.5 304.5,164.5 299.5,164.5C 299.5,159.5 299.5,154.5 299.5,149.5C 294.5,149.5 289.5,149.5 284.5,149.5C 284.5,144.5 284.5,139.5 284.5,134.5C 279.5,134.5 274.5,134.5 269.5,134.5C 270.097,129.706 269.43,125.373 267.5,121.5C 278.527,110.14 289.527,98.8067 300.5,87.5 Z"/></g>
<g><path style="opacity:1" fill="#fefffe" d="M 164.5,104.5 C 169.5,104.5 174.5,104.5 179.5,104.5C 179.5,109.5 179.5,114.5 179.5,119.5C 174.5,119.5 169.5,119.5 164.5,119.5C 164.5,114.5 164.5,109.5 164.5,104.5 Z"/></g>
<g><path style="opacity:1" fill="#f5f5f5" d="M 297.5,-0.5 C 314.167,-0.5 330.833,-0.5 347.5,-0.5C 347.5,98.8333 347.5,198.167 347.5,297.5C 304.137,256.136 261.137,214.469 218.5,172.5C 234.518,155.149 250.851,138.149 267.5,121.5C 269.43,125.373 270.097,129.706 269.5,134.5C 274.5,134.5 279.5,134.5 284.5,134.5C 284.5,139.5 284.5,144.5 284.5,149.5C 289.5,149.5 294.5,149.5 299.5,149.5C 299.5,154.5 299.5,159.5 299.5,164.5C 304.5,164.5 309.5,164.5 314.5,164.5C 314.5,169.5 314.5,174.5 314.5,179.5C 319.5,179.5 324.5,179.5 329.5,179.5C 329.5,174.5 329.5,169.5 329.5,164.5C 334.5,164.5 339.5,164.5 344.5,164.5C 344.5,159.5 344.5,154.5 344.5,149.5C 339.5,149.5 334.5,149.5 329.5,149.5C 329.5,144.5 329.5,139.5 329.5,134.5C 334.5,134.5 339.5,134.5 344.5,134.5C 344.5,129.5 344.5,124.5 344.5,119.5C 339.5,119.5 334.5,119.5 329.5,119.5C 329.5,114.5 329.5,109.5 329.5,104.5C 324.5,104.5 319.5,104.5 314.5,104.5C 314.5,99.5 314.5,94.5 314.5,89.5C 309.821,89.6658 305.155,89.4992 300.5,89C 301.738,88.31 301.738,87.81 300.5,87.5C 313.78,72.8843 327.447,58.551 341.5,44.5C 326.812,29.4792 312.145,14.4792 297.5,-0.5 Z"/></g>
<g><path style="opacity:1" fill="#f7f7f7" d="M 262.5,305.5 C 259.628,304.474 257.128,302.808 255,300.5C 254.501,305.155 254.334,309.821 254.5,314.5C 259.5,314.5 264.5,314.5 269.5,314.5C 269.5,319.5 269.5,324.5 269.5,329.5C 264.5,329.5 259.5,329.5 254.5,329.5C 254.5,334.5 254.5,339.5 254.5,344.5C 249.5,344.5 244.5,344.5 239.5,344.5C 239.5,339.5 239.5,334.5 239.5,329.5C 234.5,329.5 229.5,329.5 224.5,329.5C 224.5,334.5 224.5,339.5 224.5,344.5C 219.5,344.5 214.5,344.5 209.5,344.5C 209.5,339.5 209.5,334.5 209.5,329.5C 204.5,329.5 199.5,329.5 194.5,329.5C 194.5,334.5 194.5,339.5 194.5,344.5C 189.5,344.5 184.5,344.5 179.5,344.5C 179.5,339.5 179.5,334.5 179.5,329.5C 174.5,329.5 169.5,329.5 164.5,329.5C 164.5,334.5 164.5,339.5 164.5,344.5C 159.5,344.5 154.5,344.5 149.5,344.5C 149.5,339.5 149.5,334.5 149.5,329.5C 144.5,329.5 139.5,329.5 134.5,329.5C 134.5,334.5 134.5,339.5 134.5,344.5C 129.5,344.5 124.5,344.5 119.5,344.5C 119.5,339.5 119.5,334.5 119.5,329.5C 114.5,329.5 109.5,329.5 104.5,329.5C 104.5,324.5 104.5,319.5 104.5,314.5C 98.1579,314.666 91.8246,314.5 85.5,314C 86.7383,313.31 86.7383,312.81 85.5,312.5C 114.475,281.524 143.808,250.858 173.5,220.5C 203.517,248.518 233.183,276.851 262.5,305.5 Z"/></g>
<g><path style="opacity:1" fill="#f0f0f0" d="M 125.5,177.5 C 85.8709,219.631 46.0376,261.631 6,303.5C 5.33333,304.5 5.33333,305.5 6,306.5C 20.4769,320.472 34.3102,334.805 47.5,349.5C 31.5,349.5 15.5,349.5 -0.5,349.5C -0.5,327.833 -0.5,306.167 -0.5,284.5C 4.5,284.5 9.5,284.5 14.5,284.5C 14.5,279.5 14.5,274.5 14.5,269.5C 19.5,269.5 24.5,269.5 29.5,269.5C 29.5,264.5 29.5,259.5 29.5,254.5C 34.5,254.5 39.5,254.5 44.5,254.5C 44.5,249.5 44.5,244.5 44.5,239.5C 49.5,239.5 54.5,239.5 59.5,239.5C 59.5,234.5 59.5,229.5 59.5,224.5C 64.5,224.5 69.5,224.5 74.5,224.5C 74.5,219.5 74.5,214.5 74.5,209.5C 79.5,209.5 84.5,209.5 89.5,209.5C 89.5,204.5 89.5,199.5 89.5,194.5C 94.5,194.5 99.5,194.5 104.5,194.5C 104.5,189.5 104.5,184.5 104.5,179.5C 109.5,179.5 114.5,179.5 119.5,179.5C 119.336,176.813 119.503,174.146 120,171.5C 122.068,173.396 123.901,175.396 125.5,177.5 Z"/></g>
<g><path style="opacity:1" fill="#f3f3f3" d="M 347.5,299.5 C 347.5,316.167 347.5,332.833 347.5,349.5C 248.167,349.5 148.833,349.5 49.5,349.5C 60.82,336.547 72.82,324.214 85.5,312.5C 86.7383,312.81 86.7383,313.31 85.5,314C 91.8246,314.5 98.1579,314.666 104.5,314.5C 104.5,319.5 104.5,324.5 104.5,329.5C 109.5,329.5 114.5,329.5 119.5,329.5C 119.5,334.5 119.5,339.5 119.5,344.5C 124.5,344.5 129.5,344.5 134.5,344.5C 134.5,339.5 134.5,334.5 134.5,329.5C 139.5,329.5 144.5,329.5 149.5,329.5C 149.5,334.5 149.5,339.5 149.5,344.5C 154.5,344.5 159.5,344.5 164.5,344.5C 164.5,339.5 164.5,334.5 164.5,329.5C 169.5,329.5 174.5,329.5 179.5,329.5C 179.5,334.5 179.5,339.5 179.5,344.5C 184.5,344.5 189.5,344.5 194.5,344.5C 194.5,339.5 194.5,334.5 194.5,329.5C 199.5,329.5 204.5,329.5 209.5,329.5C 209.5,334.5 209.5,339.5 209.5,344.5C 214.5,344.5 219.5,344.5 224.5,344.5C 224.5,339.5 224.5,334.5 224.5,329.5C 229.5,329.5 234.5,329.5 239.5,329.5C 239.5,334.5 239.5,339.5 239.5,344.5C 244.5,344.5 249.5,344.5 254.5,344.5C 254.5,339.5 254.5,334.5 254.5,329.5C 259.5,329.5 264.5,329.5 269.5,329.5C 269.5,324.5 269.5,319.5 269.5,314.5C 264.5,314.5 259.5,314.5 254.5,314.5C 254.334,309.821 254.501,305.155 255,300.5C 257.128,302.808 259.628,304.474 262.5,305.5C 276.449,318.113 290.116,331.113 303.5,344.5C 318.188,329.479 332.855,314.479 347.5,299.5 Z"/></g>
</svg>
